<?xml version="1.0" encoding="iso-8859-1"?>
<!-- Uploaded to: SVG Repo, www.svgrepo.com, Generator: SVG Repo Mixer Tools -->
<svg height="800px" width="800px" version="1.1" id="Layer_1" xmlns="http://www.w3.org/2000/svg" xmlns:xlink="http://www.w3.org/1999/xlink" 
	 viewBox="0 0 512 512" xml:space="preserve">
<circle style="fill:#FFD15D;" cx="256" cy="256" r="256"/>
<path style="fill:#F9B54C;" d="M511.94,260.806l-86.135-84.968l-49.357,45.332l-34.183-34.183l-93.429,17.01L85.333,346.505
	l166.61,165.443c1.352,0.021,2.7,0.052,4.056,0.052C395.778,512,509.374,399.972,511.94,260.806z"/>
<path style="fill:#FD5790;" d="M425.805,346.505c-47.128,0-85.333-38.205-85.333-85.333s38.205-85.333,85.333-85.333V346.505z"/>
<path style="fill:#FF80AA;" d="M85.333,175.838c47.128,0,85.333,38.205,85.333,85.333s-38.205,85.333-85.333,85.333V175.838z"/>
<circle style="fill:#FD5790;" cx="256" cy="261.172" r="113.778"/>
<path style="fill:#DD457F;" d="M256,147.394c62.838,0,113.778,50.94,113.778,113.778S318.838,374.949,256,374.949V147.394z"/>
<path style="fill:#E6F3FF;" d="M191.838,243.528c0-17.718,14.364-32.082,32.082-32.082s32.082,14.364,32.082,32.082
	c0-17.718,14.364-32.082,32.082-32.082s32.082,14.364,32.082,32.082c0,30.677-64.162,67.37-64.162,67.37
	S191.838,275.932,191.838,243.528z"/>
<path style="fill:#CFDBE6;" d="M256,243.528c0-17.718,14.364-32.082,32.082-32.082s32.082,14.364,32.082,32.082
	c0,30.677-64.162,67.37-64.162,67.37v-67.37H256z"/>
</svg>